HIERARCHY
ROOT root
{
	OFFSET 0.000000 0.000000 0.000000
	CHANNELS 6 Xposition Yposition Zposition Zrotation Yrotation Xrotation
	JOINT lhip
	{
		OFFSET 0.058581 -0.082280 -0.017664
		CHANNELS 3 Zrotation Yrotation Xrotation
		JOINT lknee
		{
			OFFSET 0.043451 -0.386469 0.008037
			CHANNELS 3 Zrotation Yrotation Xrotation
			JOINT lankle
			{
				OFFSET -0.014790 -0.426874 -0.037428
				CHANNELS 3 Zrotation Yrotation Xrotation
				JOINT ltoe
				{
					OFFSET 0.041054 -0.060286 0.122042
					CHANNELS 3 Zrotation Yrotation Xrotation
					End Site
					{
						OFFSET 0.000000 0.000000 0.000000
					}
				}
			}
		}
	}
	JOINT rhip
	{
		OFFSET -0.060310 -0.090513 -0.013543
		CHANNELS 3 Zrotation Yrotation Xrotation
		JOINT rknee
		{
			OFFSET -0.043257 -0.383688 -0.004843
			CHANNELS 3 Zrotation Yrotation Xrotation
			JOINT rankle
			{
				OFFSET 0.019056 -0.420046 -0.034562
				CHANNELS 3 Zrotation Yrotation Xrotation
				JOINT rtoe
				{
					OFFSET -0.034840 -0.062106 0.130323
					CHANNELS 3 Zrotation Yrotation Xrotation
					End Site
					{
						OFFSET 0.000000 0.000000 0.000000
					}
				}
			}
		}
	}
	JOINT lowerback
	{
		OFFSET 0.004439 0.124404 -0.038385
		CHANNELS 3 Zrotation Yrotation Xrotation
		JOINT upperback
		{
			OFFSET 0.004488 0.137956 0.026820
			CHANNELS 3 Zrotation Yrotation Xrotation
			JOINT chest
			{
				OFFSET -0.002265 0.056032 0.002855
				CHANNELS 3 Zrotation Yrotation Xrotation
				JOINT lowerneck
				{
					OFFSET -0.013390 0.211636 -0.033468
					CHANNELS 3 Zrotation Yrotation Xrotation
					JOINT upperneck
					{
						OFFSET 0.010113 0.088937 0.050410
						CHANNELS 3 Zrotation Yrotation Xrotation
						End Site
						{
							OFFSET 0.000000 0.000000 0.000000
						}
					}
				}
				JOINT lclavicle
				{
					OFFSET 0.071702 0.114000 -0.018898
					CHANNELS 3 Zrotation Yrotation Xrotation
					JOINT lshoulder
					{
						OFFSET 0.122921 0.045205 -0.019046
						CHANNELS 3 Zrotation Yrotation Xrotation
						JOINT lelbow
						{
							OFFSET 0.255332 -0.015649 -0.022946
							CHANNELS 3 Zrotation Yrotation Xrotation
							JOINT lwrist
							{
								OFFSET 0.265709 0.012698 -0.007375
								CHANNELS 3 Zrotation Yrotation Xrotation
								End Site
								{
									OFFSET 0.000000 0.000000 0.000000
								}
							}
						}
					}
				}
				JOINT rclavicle
				{
					OFFSET -0.082954 0.112472 -0.023707
					CHANNELS 3 Zrotation Yrotation Xrotation
					JOINT rshoulder
					{
						OFFSET -0.113228 0.046853 -0.008472
						CHANNELS 3 Zrotation Yrotation Xrotation
						JOINT relbow
						{
							OFFSET -0.260127 -0.014369 -0.031269
							CHANNELS 3 Zrotation Yrotation Xrotation
							JOINT rwrist
							{
								OFFSET -0.269108 0.006794 -0.006027
								CHANNELS 3 Zrotation Yrotation Xrotation
								End Site
								{
									OFFSET 0.000000 0.000000 0.000000
								}
							}
						}
					}
				}
			}
		}
	}
}
MOTION
Frames: 17
Frame Time: 0.033333
-2.084849 0.352399 0.998882 -178.480466 -4.198924 89.468148 3.893890 -6.272258 -27.907495 -3.449522 7.977299 35.103081 4.303962 17.286686 -5.813933 0.000000 -0.000000 0.000000 8.828258 0.607551 7.732195 -4.010434 8.005626 -0.380177 -6.049187 -15.078790 -10.443108 0.000000 -0.000000 0.000000 -4.946247 9.069106 8.712345 -0.839127 -3.418501 3.975870 -1.217462 2.064371 -0.255529 5.566497 -11.631766 -7.833695 5.947525 -12.942789 -1.547991 -21.690082 3.268337 -1.973492 -55.233587 0.781098 18.389727 2.047213 -22.063708 10.791546 -7.399660 -3.163986 3.782433 23.498185 9.952849 -0.540893 53.714855 13.971224 17.979138 -9.602147 30.378932 4.573552 -12.211676 5.460878 0.236464 
-2.086676 0.387241 0.993909 179.156622 -3.806814 89.230813 3.431356 -6.761615 -28.677556 -2.619699 6.887561 23.006775 3.880814 16.631572 -4.209587 0.000000 -0.000000 0.000000 7.793543 -0.647534 11.295676 -2.526825 9.185493 -1.238911 -5.381424 -13.549202 -11.145983 0.000000 -0.000000 0.000000 -4.261728 10.050592 8.806515 -0.971674 -3.726015 4.097056 -1.142568 2.130268 0.279177 5.615737 -10.883198 -9.131945 5.124972 -12.035464 -0.578148 -21.362019 3.325049 -2.481387 -56.675152 2.424013 18.466458 1.617247 -21.224941 12.165871 -7.314694 -2.893664 3.224099 23.692472 11.097222 -0.427616 53.100141 17.382647 18.945442 -9.004686 32.784610 4.375749 -12.862017 6.168855 0.545874 
-2.088952 0.421153 0.988941 176.725658 -2.945266 89.796392 3.186576 -5.810978 -29.197817 -1.311336 4.343642 10.909940 2.112576 14.272197 -2.523054 0.000000 -0.000000 0.000000 8.738483 -1.406311 13.105286 -3.773857 9.824043 -0.379068 -4.119288 -13.037491 -12.427597 0.000000 -0.000000 0.000000 -3.158338 10.454063 8.188312 -1.191245 -3.695816 4.283396 -1.123172 2.664271 0.209095 5.734308 -9.747556 -9.889526 4.528042 -11.630394 0.244673 -21.442496 2.972749 -3.398900 -57.388964 4.351917 18.907157 1.508330 -20.438286 13.040727 -8.137660 -2.692782 3.023165 23.843347 12.478549 -0.050484 52.355024 19.075812 20.075245 -9.369025 35.809314 4.333507 -13.384435 6.980017 -0.055431 
-2.091379 0.457325 0.983694 174.997302 -2.229431 90.257618 2.324191 -5.109086 -29.049999 1.336963 1.585125 1.444048 2.183669 13.289425 -1.695625 0.000000 -0.000000 0.000000 8.363062 -2.430994 15.120556 -3.344261 10.332284 0.483790 -2.577820 -12.228885 -12.735824 0.000000 -0.000000 0.000000 -2.138232 10.632674 7.298158 -1.375229 -3.652440 4.686731 -1.275091 3.081910 0.206858 5.822105 -9.255081 -10.550962 4.134742 -11.116920 1.071079 -21.615482 2.361004 -3.723900 -57.508391 5.491041 18.658964 1.300497 -20.198980 13.591475 -8.086106 -2.238019 2.907432 23.802134 13.595650 0.259087 51.979131 19.937605 20.190355 -8.891434 39.075327 4.804058 -14.167494 7.583819 -0.217384 
-2.093245 0.495418 0.979298 172.770095 -1.799065 90.765041 2.272963 -4.338526 -29.769414 1.667564 0.922055 -0.426246 2.809603 12.968986 -1.575506 0.000000 -0.000000 0.000000 7.472288 -2.581160 16.266711 -2.851580 11.247513 3.234507 -1.161889 -10.727851 -12.811232 0.000000 -0.000000 0.000000 -1.700249 10.965199 6.414183 -1.394722 -3.330483 4.643898 -1.335848 3.518869 0.399603 5.962451 -8.694944 -10.818854 3.832327 -10.562523 1.177661 -22.119172 1.925441 -4.041823 -57.202411 6.222438 18.298920 1.508414 -19.973802 13.309997 -7.515653 -2.613710 1.660289 23.937616 14.165207 0.660739 51.940782 20.234422 20.167963 -8.283799 41.993201 5.955162 -14.294651 8.506949 -0.387771 
-2.093795 0.536898 0.976877 170.204254 -1.626537 90.957673 3.193614 -5.176391 -29.869882 0.027118 1.890260 4.558340 3.359564 12.930576 -1.718429 0.000000 -0.000000 0.000000 5.589232 -2.127758 17.360504 -1.547558 12.062047 6.937945 0.148339 -8.387811 -11.100887 0.000000 -0.000000 0.000000 -1.422749 11.925750 5.647827 -1.457186 -3.002276 4.650512 -1.682387 3.460636 0.196058 6.375689 -7.591939 -10.349816 3.350384 -10.396882 1.223937 -22.210132 2.174727 -4.410408 -56.818766 6.168852 17.893940 2.277211 -18.828432 12.281995 -6.979979 -3.280038 2.409019 24.813854 14.185818 0.877480 52.206540 19.539969 20.178250 -7.091237 44.278386 7.090771 -13.858025 9.342921 0.323885 
-2.095173 0.582512 0.976091 168.444710 -2.024415 91.122730 2.669046 -6.931842 -27.787204 -1.291667 3.262515 8.110450 4.925885 12.695772 -2.374483 0.000000 -0.000000 0.000000 3.745424 -1.128734 18.813891 -0.937779 12.971430 9.813427 2.071743 -6.998396 -6.952478 0.000000 -0.000000 0.000000 -1.849891 12.369794 4.470177 -1.336291 -2.742864 4.726406 -1.988497 3.487379 -0.271372 6.587860 -7.154634 -8.805698 3.308069 -10.198353 0.844920 -21.812053 2.013981 -4.403711 -57.134818 5.863985 18.108926 3.525710 -16.931764 11.026461 -6.334881 -4.246733 1.738699 24.877099 13.568647 0.793614 53.602200 16.983842 20.680017 -6.664885 46.027856 7.394213 -13.756031 10.283244 0.305532 
-2.096287 0.629350 0.978291 168.220977 -2.413279 92.095402 1.549527 -8.902790 -26.332256 -1.236929 1.322598 7.812159 6.909849 12.615690 3.499750 0.000000 -0.000000 0.000000 2.239316 -0.172229 16.773710 0.688469 11.576021 16.329124 4.416583 -5.538156 0.866117 0.000000 -0.000000 0.000000 -2.676115 11.558569 2.367164 -0.812624 -2.900064 4.491668 -2.053266 3.236770 -0.569719 5.503399 -8.120638 -6.423900 4.732047 -8.529859 -0.276549 -22.436091 0.695368 -3.899077 -56.559250 5.819757 17.989179 4.511228 -14.880759 9.458788 -6.006439 -4.333170 1.577916 24.953761 12.286352 0.209939 54.485206 13.274272 20.405074 -4.285255 47.005186 9.090305 -11.333689 10.105080 0.953026 
-2.097457 0.675396 0.984141 168.908626 -2.809733 92.237081 0.039393 -9.466600 -24.922697 -2.419068 -0.056522 11.058226 9.466411 13.394971 3.996094 0.000000 -0.000000 0.000000 0.494488 0.104603 11.878812 3.095774 8.410239 28.192585 7.033724 -5.059814 11.797095 0.000000 -0.000000 0.000000 -3.208148 9.769309 1.313308 -0.205160 -3.155194 4.234149 -2.326991 3.053554 -0.856887 4.419928 -9.462834 -5.762096 5.390351 -7.876383 0.679791 -22.739287 -1.791844 -2.280723 -56.162656 4.673062 17.298574 5.290230 -12.962663 9.475224 -5.913480 -3.333191 2.712224 24.718251 11.158601 0.685309 55.028289 9.550938 17.859979 -0.732215 46.236867 11.927727 -9.366645 8.772605 3.474011 
-2.095664 0.717402 0.987242 168.633903 -4.225459 91.555955 -1.745699 -10.658865 -21.009252 -3.732879 -0.050040 10.918692 11.284378 15.600148 2.799556 0.000000 -0.000000 0.000000 -1.728389 1.964606 4.507025 4.409186 4.640405 43.131543 6.860284 -5.460819 18.910589 0.000000 -0.000000 0.000000 -5.052076 6.675006 2.434269 0.230181 -1.425874 3.683709 -2.115690 3.017419 -0.375841 4.062778 -9.116194 -5.463633 6.142933 -6.756036 -0.701665 -21.859717 -3.668095 -1.573933 -56.492362 1.402159 17.295943 5.826715 -12.590605 9.953591 -6.741293 -1.450503 6.106194 23.627794 10.209126 1.166088 56.929428 8.445527 16.700595 -0.129215 41.584990 12.317978 -7.721348 7.135877 4.207866 
-2.093493 0.755657 0.988200 169.441336 -5.650232 90.599918 -5.062886 -10.559872 -15.955487 -3.855851 -2.684211 8.767589 12.503667 17.908871 1.485683 0.000000 -0.000000 0.000000 -3.571599 3.285873 -4.207246 3.100063 -0.347600 56.481523 4.984987 -9.831271 16.059039 0.000000 -0.000000 0.000000 -7.567206 4.032636 5.214595 1.115760 -0.861846 2.025514 -1.485653 3.274111 0.446574 2.366973 -10.434072 -6.240469 7.542734 -4.491493 -0.503699 -21.486030 -6.245721 -0.350743 -55.926098 -3.207169 16.799861 5.799195 -13.528432 7.505827 -8.101850 0.406029 8.573065 23.362407 10.005215 1.163528 57.422236 6.496937 16.665373 -2.559541 36.763791 11.716763 -3.026669 4.378149 4.866856 
-2.094484 0.799057 0.994173 173.309675 -3.853265 88.771805 -6.240519 -9.371809 -10.239477 -2.850761 -8.785903 8.215121 11.972595 19.103148 -1.058237 0.000000 -0.000000 0.000000 -2.241262 1.315861 -9.720534 2.844999 -2.972381 61.988723 2.677885 -13.099413 8.272467 0.000000 -0.000000 0.000000 -4.634423 1.013691 5.643220 1.112715 -2.690168 5.484947 -1.552553 2.993138 -1.614094 -0.536966 -9.785222 -2.727213 9.554498 -3.471601 -3.439055 -23.832046 -9.807943 0.639598 -51.930497 -6.020437 15.604214 3.938272 -14.143738 5.323921 -3.596099 -1.488082 9.161655 23.839228 11.799357 1.868114 55.430631 2.205626 14.143836 -1.404401 30.736738 12.425983 -7.317406 6.261263 5.975225 
-2.093995 0.838866 1.000838 175.254348 -3.097909 87.000753 -7.370952 -7.554537 -3.894341 -1.772006 -13.555425 6.183952 11.087135 20.806912 -2.599957 0.000000 -0.000000 0.000000 -2.111901 0.337756 -15.051719 2.115261 -4.760850 63.182657 -0.131499 -15.539830 0.817220 0.000000 -0.000000 0.000000 -3.553710 -0.314279 6.710252 1.251235 -3.159838 6.757246 -1.285744 2.467829 -2.490571 -1.890443 -9.773278 -0.692703 10.803733 -3.148738 -4.514507 -24.717526 -12.117924 1.125590 -48.850681 -10.511418 14.643945 2.959567 -13.939100 3.953420 -0.876714 -3.067255 10.860175 23.398931 11.628599 1.829748 55.087939 -1.484797 12.463477 -1.931039 24.435121 12.987217 -8.579381 7.237242 7.940220 
-2.090163 0.876555 1.004414 177.586124 -2.210352 86.213777 -6.917299 -6.002885 0.870111 -1.121325 -17.018996 4.382834 9.371948 20.761454 -4.099876 0.000000 -0.000000 0.000000 -1.723239 -0.337295 -20.118437 1.729292 -6.869532 58.932782 -1.150322 -16.881381 -3.530914 0.000000 -0.000000 0.000000 -3.063125 -1.804291 7.357932 1.502575 -2.958643 6.839040 -0.621687 1.812785 -2.593607 -2.232197 -9.426200 0.686465 11.551128 -3.535588 -5.551344 -25.068765 -13.798869 0.785298 -46.711534 -15.659139 14.409990 2.689490 -13.849920 2.758890 0.479540 -3.846053 13.332567 22.835085 10.929945 1.395647 54.646213 -5.537806 11.513173 -2.457758 20.180422 13.184640 -8.189245 6.487585 7.510473 
-2.086270 0.913550 1.005317 -179.844920 -1.806750 85.594816 -6.783058 -5.244921 4.886884 -0.551553 -19.848133 3.575084 8.598351 21.033302 -6.300360 0.000000 -0.000000 0.000000 -1.300769 -0.475208 -23.327935 1.341487 -7.505235 49.489428 -1.452513 -18.969192 -5.343514 0.000000 -0.000000 0.000000 -3.057736 -3.087287 8.112314 1.849492 -2.926610 6.044701 -0.055803 1.148369 -1.829691 -2.687051 -9.600126 0.772494 12.081295 -3.990364 -6.086605 -24.815433 -14.861076 0.240401 -45.673959 -20.971147 13.940726 3.184296 -15.197113 0.405901 -1.301433 -2.931268 14.967399 21.712896 9.414744 0.872880 54.870593 -9.269864 10.327702 -3.739511 19.378608 14.240326 -3.841433 3.522301 9.245039 
-2.081624 0.950366 1.003175 -177.015644 -1.459107 85.218183 -6.439521 -4.469191 8.247147 0.109749 -22.614896 3.310537 7.153580 20.877060 -8.648193 0.000000 -0.000000 0.000000 -0.921066 -1.426663 -24.502689 -0.310956 -9.329844 35.992337 -1.894890 -22.703381 -5.041972 0.000000 -0.000000 0.000000 -3.007649 -4.328376 8.702635 1.943239 -3.525816 5.047998 0.397329 0.512608 -0.806560 -2.962064 -9.850281 0.615920 12.733479 -4.051812 -6.608933 -24.541763 -15.671360 -0.386544 -45.074282 -25.831697 13.639211 3.845252 -16.962853 -2.515195 -0.760185 -3.448891 15.097304 20.002215 7.685381 0.050933 54.858450 -12.203808 9.417442 -2.601017 20.054604 16.695104 -0.811622 2.188214 9.481760 
-2.076853 0.987078 0.999923 -174.998956 -1.727842 85.493699 -6.054326 -3.191348 11.054889 0.647840 -23.662067 2.525083 5.683889 19.404071 -10.699246 0.000000 -0.000000 0.000000 -0.330112 -1.996642 -24.647017 -2.309478 -9.820189 20.491010 -2.326027 -24.401468 -1.504521 0.000000 -0.000000 0.000000 -3.415918 -5.347800 7.991071 1.886773 -4.099790 5.130861 0.548854 -0.209694 -0.516688 -2.996370 -9.420500 0.728353 13.147843 -4.232615 -6.920671 -23.966906 -16.446272 -1.087708 -44.415388 -29.081997 13.795944 5.247764 -19.863271 -6.588372 -3.233160 -3.087902 13.913780 18.381105 6.491681 -0.472748 54.562881 -14.763326 9.930516 -0.731666 21.914158 18.529054 5.097707 0.258465 7.101841 
